<?xml version="1.0" encoding="utf-8"?><svg viewBox="0 0 100 100" xmlns="http://www.w3.org/2000/svg" width="200px" height="200px" xmlns:xlink="http://www.w3.org/1999/xlink" style="width:100%;height:100%;background-size:initial;background-repeat-y:initial;background-repeat-x:initial;background-position-y:initial;background-position-x:initial;background-origin:initial;background-color:initial;background-clip:initial;background-attachment:initial;animation-play-state:paused" ><g class="ldl-scale" style="transform-origin:50% 50%;transform:rotate(0deg) scale(0.8, 0.8);animation-play-state:paused" ><path stroke-miterlimit="10" stroke-linejoin="round" stroke-linecap="round" stroke-width="3" stroke="#333" fill="#f8b26a" d="M49.2 61c5.9 3.8 6.7 8.2 4.5 11.6-2.2 3.4-6.5 4.5-12.4.7S30.6 57.7 30.6 57.7s12.7-.4 18.6 3.3z" style="stroke:rgb(255, 255, 255);fill:rgb(255, 255, 255);animation-play-state:paused" ></path>
<path stroke-miterlimit="10" stroke-linejoin="round" stroke-linecap="round" stroke-width="3" stroke="#333" fill="#f8b26a" d="M66.9 60.3c-3 4.6-6.4 5.2-9.1 3.5-2.7-1.7-3.5-5.1-.6-9.7 3-4.6 12.2-8.3 12.2-8.3s.4 9.9-2.5 14.5z" style="stroke:rgb(255, 255, 255);fill:rgb(255, 255, 255);animation-play-state:paused" ></path>
<path stroke-miterlimit="10" stroke-linejoin="round" stroke-linecap="round" stroke-width="3" stroke="#333" fill="#f8b26a" d="M48.9 44.1c4.7 3 5.4 6.6 3.6 9.3-1.8 2.7-5.3 3.6-10 .6s-8.6-12.5-8.6-12.5 10.2-.4 15 2.6z" style="stroke:rgb(255, 255, 255);fill:rgb(255, 255, 255);animation-play-state:paused" ></path>
<path stroke-miterlimit="10" stroke-linejoin="round" stroke-linecap="round" stroke-width="3" stroke="#333" fill="#f8b26a" d="M63.1 43.5c-2.4 3.7-5.2 4.2-7.3 2.8-2.1-1.4-2.8-4.1-.5-7.8 2.4-3.7 9.8-6.7 9.8-6.7s.4 8-2 11.7z" style="stroke:rgb(255, 255, 255);fill:rgb(255, 255, 255);animation-play-state:paused" ></path>
<path stroke-miterlimit="10" stroke-linejoin="round" stroke-linecap="round" stroke-width="3" stroke="#333" fill="#f8b26a" d="M48.7 28.3c4.2 2.7 4.8 5.9 3.2 8.4-1.6 2.5-4.7 3.3-9 .5-4.1-2.7-7.6-11.2-7.6-11.2s9.2-.4 13.4 2.3z" style="stroke:rgb(255, 255, 255);fill:rgb(255, 255, 255);animation-play-state:paused" ></path>
<path stroke-miterlimit="10" stroke-linejoin="round" stroke-linecap="round" stroke-width="3" stroke="#333" fill="#f8b26a" d="M61.5 27.8c-2.1 3.3-4.6 3.8-6.5 2.5s-2.5-3.7-.4-7 8.8-6 8.8-6 .2 7.2-1.9 10.5z" style="stroke:rgb(255, 255, 255);fill:rgb(255, 255, 255);animation-play-state:paused" ></path>
<path stroke-miterlimit="10" stroke-linejoin="round" stroke-linecap="round" stroke-width="3" stroke="#333" fill="#f8b26a" d="M51.6 14.2c2.1 4.6.8 7.6-1.8 8.8s-5.7.2-7.8-4.4C39.9 14 41.6 5 41.6 5s7.9 4.7 10 9.2z" style="stroke:rgb(255, 255, 255);fill:rgb(255, 255, 255);animation-play-state:paused" ></path>
<path stroke-miterlimit="10" stroke-linejoin="round" stroke-linecap="round" stroke-width="3" stroke="#333" fill="none" d="M50.6 22.7c5.1 23.7 6 48.3 2.8 72.3" style="stroke:rgb(255, 255, 255);animation-play-state:paused" ></path>
<metadata xmlns:d="https://loading.io/stock/" style="animation-play-state:paused" ><d:name style="animation-play-state:paused" >wheat</d:name>


<d:tags style="animation-play-state:paused" >wheat,rice,seed,food,farm,agriculture,barn,granary</d:tags>


<d:license style="animation-play-state:paused" >by</d:license>


<d:slug style="animation-play-state:paused" >t4p7kf</d:slug></metadata></g><!-- generated by https://loading.io/ --></svg>